<svg width="23" height="21" viewBox="0 0 23 21" fill="none" xmlns="http://www.w3.org/2000/svg">
<path d="M20.3382 3.11183C19.8274 2.60083 19.221 2.19547 18.5535 1.91891C17.8861 1.64235 17.1707 1.5 16.4482 1.5C15.7257 1.5 15.0103 1.64235 14.3428 1.91891C13.6754 2.19547 13.0689 2.60083 12.5582 3.11183L11.4982 4.17183L10.4382 3.11183C9.40647 2.08013 8.0072 1.50053 6.54817 1.50053C5.08913 1.50053 3.68986 2.08013 2.65817 3.11183C1.62647 4.14352 1.04688 5.54279 1.04688 7.00183C1.04687 8.46086 1.62647 9.86013 2.65817 10.8918L3.71817 11.9518L11.4982 19.7318L19.2782 11.9518L20.3382 10.8918C20.8492 10.3811 21.2545 9.77464 21.5311 9.10718C21.8076 8.43972 21.95 7.72431 21.95 7.00183C21.95 6.27934 21.8076 5.56393 21.5311 4.89647C21.2545 4.22901 20.8492 3.62258 20.3382 3.11183V3.11183Z" stroke="#F1F3F9" stroke-width="2" stroke-linecap="round" stroke-linejoin="round"/>
</svg>
