<svg width="28" height="28" viewBox="0 0 28 28" fill="none" xmlns="http://www.w3.org/2000/svg">
<path d="M17.4375 4.375C18.9209 4.77396 20.2734 5.55567 21.3595 6.64184C22.4457 7.72801 23.2274 9.08051 23.6264 10.5639" stroke="#201D1E" stroke-width="1.5" stroke-linecap="round" stroke-linejoin="round"/>
<path d="M16.5312 7.75781C17.4211 7.9972 18.2324 8.46616 18.884 9.11773C19.5355 9.7693 20.0045 10.5806 20.2439 11.4704" stroke="#201D1E" stroke-width="1.5" stroke-linecap="round" stroke-linejoin="round"/>
<path d="M10.115 13.6512C11.0224 15.5069 12.5263 17.0043 14.3859 17.9037C14.522 17.9682 14.6727 17.9961 14.8229 17.9846C14.9731 17.973 15.1178 17.9225 15.2425 17.8381L17.9812 16.0128C18.1022 15.932 18.2414 15.8827 18.3862 15.8693C18.5311 15.8558 18.677 15.8787 18.8107 15.9358L23.9339 18.1321C24.1079 18.206 24.2532 18.3344 24.3479 18.4981C24.4426 18.6617 24.4815 18.8517 24.4589 19.0394C24.2967 20.3064 23.6784 21.4708 22.7196 22.3148C21.7608 23.1587 20.5273 23.6243 19.25 23.6244C15.3049 23.6244 11.5214 22.0573 8.73179 19.2676C5.94218 16.478 4.375 12.6945 4.375 8.74943C4.37512 7.47222 4.84074 6.23884 5.68471 5.28021C6.52867 4.32157 7.6931 3.7034 8.96 3.54143C9.14771 3.5188 9.33769 3.55775 9.50134 3.65244C9.66499 3.74713 9.79345 3.89242 9.86738 4.06643L12.0654 9.19393C12.1219 9.32642 12.1449 9.47081 12.1322 9.61429C12.1195 9.75777 12.0716 9.8959 11.9928 10.0164L10.1728 12.7972C10.0901 12.9224 10.0414 13.0669 10.0313 13.2166C10.0212 13.3662 10.05 13.516 10.115 13.6512V13.6512Z" stroke="#201D1E" stroke-width="1.5" stroke-linecap="round" stroke-linejoin="round"/>
</svg>
